<svg xmlns="http://www.w3.org/2000/svg" version="1.1" xmlns:xlink="http://www.w3.org/1999/xlink" width="404" height="377"><svg viewBox="0 0 404 377" version="1.1" xmlns="http://www.w3.org/2000/svg" xmlns:xlink="http://www.w3.org/1999/xlink" xml:space="preserve" xmlns:serif="http://www.serif.com/" style="fill-rule:evenodd;clip-rule:evenodd;stroke-linejoin:round;stroke-miterlimit:2;">
    <g transform="matrix(1,0,0,1,-226.445,-522.171)">
        <g transform="matrix(1.00262,0,0,1.00262,-308.045,-1048.2)">
            <g>
                <g transform="matrix(0.29736,0,0,0.29736,593.926,1423.8)">
                    <path d="M687.014,484.939C700.409,477.205 716.913,477.205 730.309,484.939C769.615,507.633 852.28,555.359 891.587,578.053C904.982,585.787 913.234,600.08 913.234,615.548L913.234,801.775C913.234,817.243 904.982,831.536 891.587,839.27C852.28,861.963 769.615,909.69 730.309,932.384C716.913,940.118 700.409,940.118 687.014,932.384C647.707,909.69 565.043,861.963 525.736,839.27C512.341,831.536 504.088,817.243 504.088,801.775L504.088,615.548C504.088,600.08 512.341,585.787 525.736,578.053C565.043,555.359 647.707,507.633 687.014,484.939Z" style="fill:rgb(79,70,229);"></path>
                </g>
                <g transform="matrix(0.29736,0,0,0.29736,453.44,1662.62)">
                    <path d="M687.014,484.939C700.409,477.205 716.913,477.205 730.309,484.939C769.615,507.633 852.28,555.359 891.587,578.053C904.982,585.787 913.234,600.08 913.234,615.548L913.234,801.775C913.234,817.243 904.982,831.536 891.587,839.27C852.28,861.963 769.615,909.69 730.309,932.384C716.913,940.118 700.409,940.118 687.014,932.384C647.707,909.69 565.043,861.963 525.736,839.27C512.341,831.536 504.088,817.243 504.088,801.775L504.088,615.548C504.088,600.08 512.341,585.787 525.736,578.053C565.043,555.359 647.707,507.633 687.014,484.939Z" style="fill:rgb(79,70,229);"></path>
                </g>
                <g transform="matrix(0.29736,0,0,0.29736,593.926,1662.62)">
                    <path d="M687.014,484.939C700.409,477.205 716.913,477.205 730.309,484.939C769.615,507.633 852.28,555.359 891.587,578.053C904.982,585.787 913.234,600.08 913.234,615.548L913.234,801.775C913.234,817.243 904.982,831.536 891.587,839.27C852.28,861.963 769.615,909.69 730.309,932.384C716.913,940.118 700.409,940.118 687.014,932.384C647.707,909.69 565.043,861.963 525.736,839.27C512.341,831.536 504.088,817.243 504.088,801.775L504.088,615.548C504.088,600.08 512.341,585.787 525.736,578.053C565.043,555.359 647.707,507.633 687.014,484.939Z" style="fill:rgb(79,70,229);"></path>
                </g>
                <g transform="matrix(0.29736,0,0,0.29736,523.683,1543.21)">
                    <path d="M687.014,484.939C700.409,477.205 716.913,477.205 730.309,484.939L891.587,578.053C904.982,585.787 913.234,600.08 913.234,615.548L913.234,801.775C913.234,817.243 904.982,831.536 891.587,839.27L730.309,932.384C716.913,940.118 700.409,940.118 687.014,932.384L525.736,839.27C512.341,831.536 504.088,817.243 504.088,801.775L504.088,615.548C504.088,600.08 512.341,585.787 525.736,578.053L687.014,484.939ZM695.414,571.751L596.718,628.734C588.52,633.467 583.47,642.213 583.47,651.679L583.47,765.644C583.47,775.11 588.52,783.856 596.718,788.589L695.414,845.571C703.611,850.304 713.711,850.304 721.909,845.571L820.605,788.589C828.803,783.856 833.853,775.11 833.853,765.644L833.853,651.679C833.853,642.213 828.803,633.467 820.605,628.734L721.909,571.751C713.711,567.018 703.611,567.018 695.414,571.751Z" style="fill:rgb(79,70,229);"></path>
                </g>
                <g transform="matrix(0.29736,0,0,0.29736,453.44,1423.8)">
                    <path d="M687.014,484.939C700.409,477.205 716.913,477.205 730.309,484.939L891.587,578.053C904.982,585.787 913.234,600.08 913.234,615.548L913.234,801.775C913.234,817.243 904.982,831.536 891.587,839.27L730.309,932.384C716.913,940.118 700.409,940.118 687.014,932.384L525.736,839.27C512.341,831.536 504.088,817.243 504.088,801.775L504.088,615.548C504.088,600.08 512.341,585.787 525.736,578.053L687.014,484.939ZM695.414,571.751L596.718,628.734C588.52,633.467 583.47,642.213 583.47,651.679L583.47,765.644C583.47,775.11 588.52,783.856 596.718,788.589L695.414,845.571C703.611,850.304 713.711,850.304 721.909,845.571L820.605,788.589C828.803,783.856 833.853,775.11 833.853,765.644L833.853,651.679C833.853,642.213 828.803,633.467 820.605,628.734L721.909,571.751C713.711,567.018 703.611,567.018 695.414,571.751Z" style="fill:rgb(79,70,229);"></path>
                </g>
                <g transform="matrix(0.29736,0,0,0.29736,383.198,1543.21)">
                    <path d="M687.014,484.939C700.409,477.205 716.913,477.205 730.309,484.939L891.587,578.053C904.982,585.787 913.234,600.08 913.234,615.548L913.234,801.775C913.234,817.243 904.982,831.536 891.587,839.27L730.309,932.384C716.913,940.118 700.409,940.118 687.014,932.384L525.736,839.27C512.341,831.536 504.088,817.243 504.088,801.775L504.088,615.548C504.088,600.08 512.341,585.787 525.736,578.053L687.014,484.939ZM695.414,571.751L596.718,628.734C588.52,633.467 583.47,642.213 583.47,651.679L583.47,765.644C583.47,775.11 588.52,783.856 596.718,788.589L695.414,845.571C703.611,850.304 713.711,850.304 721.909,845.571L820.605,788.589C828.803,783.856 833.853,775.11 833.853,765.644L833.853,651.679C833.853,642.213 828.803,633.467 820.605,628.734L721.909,571.751C713.711,567.018 703.611,567.018 695.414,571.751Z" style="fill:rgb(79,70,229);"></path>
                </g>
                <g transform="matrix(0.29736,0,0,0.29736,664.168,1543.21)">
                    <path d="M687.014,484.939C700.409,477.205 716.913,477.205 730.309,484.939C769.615,507.633 852.28,555.359 891.587,578.053C904.982,585.787 913.234,600.08 913.234,615.548L913.234,801.775C913.234,817.243 904.982,831.536 891.587,839.27C852.28,861.963 769.615,909.69 730.309,932.384C716.913,940.118 700.409,940.118 687.014,932.384C647.707,909.69 565.043,861.963 525.736,839.27C512.341,831.536 504.088,817.243 504.088,801.775L504.088,615.548C504.088,600.08 512.341,585.787 525.736,578.053C565.043,555.359 647.707,507.633 687.014,484.939Z" style="fill:rgb(79,70,229);"></path>
                </g>
            </g>
        </g>
    </g>
</svg><style>@media (prefers-color-scheme: light) { :root { filter: none; } }
@media (prefers-color-scheme: dark) { :root { filter: none; } }
</style></svg>